<svg aria-hidden="true" style="position: absolute; width: 0; height: 0; overflow: hidden;" version="1.1" xmlns="http://www.w3.org/2000/svg" xmlns:xlink="http://www.w3.org/1999/xlink">
<defs>
<symbol id="icon-pub" viewBox="0 0 32 32">
<path d="M27.333 3.365h-7.4c-0.366-0.003-0.696-0.156-0.933-0.4l-2.667-2.667c-0.177-0.185-0.425-0.299-0.7-0.299s-0.523 0.115-0.7 0.299l-0 0-2.667 2.667c-0.267 0.267-0.6 0.4-0.933 0.4h-7.333c-2.2 0-4 1.8-4 4v20c0 2.2 1.8 4 4 4h23.333c2.2 0 4-1.8 4-4v-20c0-2.2-1.8-4-4-4zM7.733 29.365c-0.375-0.017-0.673-0.325-0.673-0.703 0-0.034 0.002-0.068 0.007-0.1l-0 0.004c0.467-2.133 2.333-3.733 4.533-3.733h8c2.267 0 4.133 1.6 4.533 3.733 0.067 0.4-0.267 0.8-0.667 0.8h-15.733zM29.333 27.365c0 1.133-0.867 2-2 2h-0.4c-0.333 0-0.6-0.267-0.667-0.6-0.4-3.333-3.2-5.933-6.6-5.933h-8c-3.4 0-6.267 2.603-6.6 5.936-0.067 0.331-0.333 0.597-0.667 0.597h-0.4c-0.010 0-0.023 0-0.035 0-1.085 0-1.965-0.88-1.965-1.965 0-0.012 0-0.025 0-0.037l-0 0.002v-20c0-1.133 0.867-2 2-2h7.4c0.867 0 1.733-0.333 2.333-1l1.933-1.933 1.933 1.933c0.6 0.603 1.467 1.003 2.333 1.003h7.4c1.133 0 2 0.867 2 2v20zM15.667 8.032c-3.536 0.001-6.401 2.867-6.401 6.403s2.867 6.403 6.403 6.403c0 0 0.001 0 0.001 0h-0c3.535-0.001 6.4-2.866 6.4-6.401s-2.866-6.401-6.401-6.401c-0 0-0.001 0-0.001 0h0zM15.667 18.765c-2.4 0-4.4-1.931-4.4-4.4 0-2.4 1.933-4.4 4.4-4.4s4.4 1.936 4.4 4.4c0 2.4-2 4.4-4.4 4.4z"></path>
</symbol>
<symbol id="icon-wrap" viewBox="0 0 32 32">
<path d="M29 0h-28c-0.533 0-1 0.467-1 1v28c0 0.533 0.467 1 1 1h28c0.533 0 1-0.467 1-1v-28c0-0.533-0.467-1-1-1zM2 2h7.333v7.333h-7.333v-7.333zM2 11.333h7.333v7.333h-7.333v-7.333zM9.333 28h-7.333v-7.333h7.333v7.333zM18.667 28h-7.333v-7.333h7.333v7.333zM18.667 18.667h-7.333v-7.333h7.333v7.333zM18.667 9.333h-7.333v-7.333h7.333v7.333zM28 28h-7.333v-7.333h7.333v7.333zM28 18.667h-7.333v-7.333h7.333v7.333zM28 9.333h-7.333v-7.333h7.333v7.333z"></path>
</symbol>
<symbol id="icon-list" viewBox="0 0 51 32">
<path d="M24.941 32l-24.941-28.8h49.882l-24.941 28.8z"></path>
</symbol>
<symbol id="icon-logo" viewBox="0 0 111 32">
<path d="M5.71 0.11c-2.271 0.95-4.768 3.634-5.555 7.005-0.998 4.27 3.156 6.076 3.497 5.485 0.402-0.695-0.743-0.931-0.98-3.147-0.304-2.862 1.026-6.059 2.701-7.462 0.311-0.261 0.297 0.102 0.297 0.773 0 1.2-0.066 11.973-0.066 14.222 0 3.042-0.126 4.003-0.352 4.951-0.228 0.962-0.596 1.613-0.318 1.863 0.311 0.279 1.641-0.386 2.41-1.46 0.923-1.287 1.245-2.834 1.303-4.514 0.070-2.023 0.067-5.237 0.070-7.069 0.002-1.68 0.028-6.602-0.030-9.559-0.014-0.724-2.027-1.486-2.976-1.088zM110.435 16.092c-0.33 0-0.479 0.34-0.604 0.911-0.432 1.988-0.884 2.436-1.47 2.436-0.653 0-1.239-0.983-1.391-2.954-0.118-1.549-0.099-4.4 0.052-7.236 0.031-0.582-0.129-1.159-1.693-1.728-0.672-0.244-1.65-0.604-2.137 0.572-1.376 3.321-1.914 5.956-2.041 7.026-0.006 0.055-0.075 0.067-0.086-0.063-0.081-0.858-0.261-2.416-0.284-5.69-0.004-0.639-0.139-1.183-0.845-1.628-0.458-0.289-1.846-0.8-2.347-0.192-0.433 0.497-0.935 1.835-1.457 3.421-0.423 1.289-0.719 2.16-0.719 2.16s0.005-3.477 0.011-4.797c0.002-0.497-0.339-0.663-0.442-0.693-0.463-0.134-1.376-0.358-1.764-0.358-0.478 0-0.595 0.267-0.595 0.656 0 0.051-0.075 4.578-0.075 7.744v0.448c-0.263 1.455-1.121 3.429-2.053 3.429-0.934 0-1.375-0.826-1.375-4.599 0-2.202 0.066-3.159 0.099-4.751 0.018-0.917 0.055-1.621 0.053-1.781-0.007-0.491-0.854-0.738-1.249-0.829-0.274-0.073-0.588-0.114-0.913-0.114-0.034 0-0.068 0-0.102 0.001l0.005-0c-0.38 0.021-0.65 0.271-0.65 0.614l0.002 0.534c-0.491-0.77-1.278-1.307-1.803-1.461-1.413-0.42-2.887-0.048-4 1.508-0.883 1.236-1.415 2.637-1.626 4.649-0.153 1.47-0.103 2.962 0.17 4.224-0.33 1.423-0.941 2.005-1.61 2.005-0.971 0-1.676-1.585-1.595-4.329 0.054-1.803 0.416-3.069 0.811-4.901 0.167-0.781 0.031-1.189-0.313-1.581-0.314-0.359-0.983-0.543-1.947-0.317-0.625 0.151-1.495 0.314-2.375 0.444l-0.189 0.023s0.053-0.217 0.098-0.597c0.234-1.998-1.937-1.835-2.629-1.198-0.414 0.381-0.695 0.831-0.802 1.638-0.17 1.282 0.876 1.887 0.876 1.887-0.342 1.57-1.184 3.621-2.051 5.104-0.465 0.795-0.821 1.383-1.28 2.010l-0.004-0.699c-0.011-3.301 0.034-5.899 0.053-6.835 0.019-0.917 0.055-1.603 0.053-1.763-0.005-0.358-0.214-0.494-0.651-0.665-0.385-0.152-0.831-0.257-1.296-0.292l-0.016-0.001c-0.595-0.047-0.955 0.27-0.945 0.643 0.002 0.070 0.002 0.503 0.002 0.503-0.491-0.77-1.28-1.306-1.803-1.461-1.413-0.419-2.887-0.047-4 1.508-0.883 1.237-1.461 2.972-1.626 4.634-0.154 1.549-0.125 2.865 0.083 3.973-0.224 1.11-0.87 2.272-1.6 2.272-0.934 0-1.466-0.826-1.466-4.601 0-2.202 0.066-3.158 0.098-4.751 0.019-0.917 0.055-1.621 0.053-1.781-0.006-0.491-0.854-0.737-1.248-0.829-0.414-0.096-0.77-0.13-1.043-0.111-0.362 0.028-0.614 0.351-0.614 0.592v0.555c-0.491-0.77-1.28-1.306-1.803-1.461-1.413-0.419-2.88-0.042-4 1.508-0.73 1.011-1.322 2.131-1.626 4.611-0.078 0.583-0.122 1.258-0.122 1.942 0 0.026 0 0.052 0 0.078v-0.004c-0.291 1.781-1.579 3.834-2.63 3.834-0.617 0-1.202-1.195-1.202-3.74 0-3.392 0.21-8.219 0.245-8.685l1.587-0.026c0.662-0.006 1.264 0.009 2.147-0.036 0.443-0.022 0.869-1.613 0.413-1.81-0.207-0.089-1.673-0.166-2.253-0.179-0.489-0.011-1.849-0.111-1.849-0.111s0.123-3.205 0.15-3.543c0.025-0.283-0.341-0.427-0.549-0.516-0.51-0.214-0.965-0.318-1.504-0.43-0.747-0.154-1.085-0.003-1.152 0.627-0.098 0.955-0.149 3.753-0.149 3.753-0.548 0-2.418-0.107-2.965-0.107-0.509 0-1.057 2.187-0.354 2.214 0.81 0.032 2.219 0.059 3.154 0.086 0 0-0.043 4.908-0.043 6.423l0.002 0.467c-0.514 2.681-2.325 4.129-2.325 4.129 0.388-1.774-0.406-3.106-1.839-4.234-0.527-0.416-1.568-1.202-2.734-2.064 0 0 0.675-0.666 1.274-2.003 0.425-0.948 0.443-2.033-0.598-2.272-1.719-0.395-3.138 0.867-3.561 2.215-0.329 1.045-0.154 1.82 0.489 2.625 0.047 0.059 0.098 0.119 0.149 0.179-0.621 1.222-1.077 2.053-1.55 2.873l0.178-0.335c-1.254 2.169-2.202 3.885-2.917 3.885-0.572 0-0.564-1.742-0.564-3.373 0-1.406 0.103-3.52 0.187-5.709 0.028-0.723-0.335-1.136-0.941-1.509-0.369-0.227-1.155-0.672-1.611-0.672-0.683 0-2.65 0.092-4.509 5.47-0.235 0.677-0.694 1.913-0.694 1.913l0.039-6.467c0-0.151-0.081-0.299-0.267-0.398-0.313-0.171-1.149-0.518-1.893-0.518-0.354 0-0.531 0.165-0.531 0.494l-0.065 10.117c0 0.768 0.020 1.666 0.096 2.059 0.076 0.391 0.198 0.711 0.351 0.901 0.146 0.2 0.361 0.343 0.609 0.394l0.006 0.001c0.27 0.055 1.744 0.245 1.821-0.32 0.092-0.674 0.096-1.405 0.87-4.129 1.205-4.242 2.777-6.311 3.516-7.046 0.129-0.128 0.277-0.137 0.27 0.075-0.032 0.929-0.143 3.253-0.218 5.227-0.201 5.283 0.761 6.262 2.134 6.262 1.051 0 2.532-1.044 4.119-3.686-1.524 2.807-0.65 1.362 0.22-0.086l2.421-4.341c0.482 0.447 1.022 0.926 1.562 1.438 1.253 1.19 1.665 2.321 1.392 3.394-0.209 0.821-0.995 1.666-2.396 0.844-0.409-0.239-0.582-0.425-0.993-0.694-0.221-0.145-0.557-0.189-0.758-0.037-0.525 0.396-0.825 0.899-0.996 1.521-0.166 0.606 0.441 0.926 1.069 1.206 0.542 0.241 1.707 0.459 2.448 0.484 2.892 0.096 5.209-1.396 6.821-5.248 0.288 3.327 1.518 5.209 3.652 5.209 1.427 0 2.859-1.845 3.484-3.659 0.18 0.739 0.446 1.382 0.789 1.926 1.645 2.606 4.835 2.045 6.438-0.167 0.495-0.684 0.571-0.93 0.571-0.93 0.235 2.091 1.917 2.82 2.88 2.82 1.079 0 2.194-0.51 2.975-2.269 0.090 0.188 0.19 0.37 0.3 0.546 1.645 2.607 4.836 2.046 6.439-0.167 0.075-0.105 0.141-0.198 0.198-0.283l0.047 1.373-1.476 1.354c-2.474 2.267-4.352 3.986-4.491 5.989-0.176 2.553 1.894 3.502 3.461 3.627 1.663 0.131 3.089-0.787 3.964-2.074 0.771-1.132 1.275-3.569 1.237-5.975-0.014-0.964-0.038-2.189-0.058-3.503 0.969-1.116 1.875-2.349 2.678-3.653l0.070-0.121c0.981-1.626 2.033-3.809 2.572-5.508 0 0 0.914 0.007 1.89-0.055 0.311-0.021 0.401 0.043 0.343 0.272-0.069 0.275-1.232 4.761-0.171 7.748 0.725 2.046 2.363 2.703 3.334 2.703 1.136 0 2.223-0.858 2.805-2.132 0.070 0.142 0.144 0.279 0.224 0.406 1.645 2.607 4.825 2.043 6.438-0.167 0.365-0.498 0.572-0.93 0.572-0.93 0.346 2.163 2.028 2.831 2.991 2.831 1.003 0 1.956-0.411 2.729-2.24 0.032 0.806 0.083 1.463 0.163 1.671 0.049 0.127 0.334 0.286 0.542 0.363 0.917 0.341 1.854 0.18 2.201 0.11 0.24-0.049 0.427-0.241 0.452-0.738 0.067-1.306 0.027-3.499 0.421-5.129 0.665-2.735 1.284-3.796 1.579-4.321 0.164-0.294 0.35-0.342 0.356-0.032 0.014 0.63 0.045 2.481 0.303 4.967 0.189 1.829 0.441 2.91 0.635 3.252 0.555 0.978 1.237 1.024 1.794 1.024 0.354 0 1.095-0.097 1.029-0.72-0.032-0.303 0.023-2.179 0.678-4.874 0.428-1.76 1.141-3.349 1.397-3.931 0.096-0.214 0.139-0.046 0.139-0.013-0.054 1.212-0.176 5.175 0.318 7.344 0.669 2.937 2.605 3.265 3.279 3.265 1.441 0 2.619-1.095 3.015-3.979 0.096-0.693-0.045-1.23-0.469-1.23zM50.106 14.31c-0.082 1.525-0.38 2.8-0.858 3.727-0.864 1.677-2.574 2.208-3.328-0.214-0.544-1.747-0.358-4.128-0.132-5.415 0.335-1.909 1.175-3.264 2.487-3.136 1.347 0.132 2.002 1.865 1.83 5.039zM63.27 14.332c-0.077 1.44-0.45 2.889-0.859 3.706-0.841 1.689-2.598 2.217-3.328-0.213-0.497-1.662-0.379-3.81-0.131-5.165 0.32-1.757 1.094-3.387 2.487-3.387 1.354 0 2.021 1.485 1.83 5.059zM63.614 24.16c-0.018 2.628-0.432 4.932-1.318 5.602-1.259 0.949-2.949 0.237-2.599-1.681 0.309-1.696 1.775-3.429 3.921-5.547 0 0 0.004 0.482-0.003 1.626zM86.339 14.347c-0.074 1.582-0.423 2.818-0.859 3.691-0.841 1.689-2.587 2.212-3.328-0.214-0.403-1.323-0.422-3.532-0.132-5.378 0.297-1.881 1.121-3.3 2.489-3.172 1.347 0.126 1.979 1.863 1.83 5.075z"></path>
</symbol>
<symbol id="icon-search" viewBox="0 0 32 32">
<path d="M30.002 32c0.249 0 0.498-0.046 0.747-0.142 0.261-0.099 0.482-0.254 0.656-0.45l0.001-0.002c0.366-0.35 0.594-0.843 0.594-1.388 0-0.007-0-0.014-0-0.021v0.001c0-0.005 0-0.010 0-0.016 0-0.546-0.228-1.038-0.593-1.388l-0.001-0.001-5.97-5.97c0.896-1.188 1.596-2.5 2.098-3.936 0.498-1.436 0.747-2.951 0.747-4.533 0-1.956-0.37-3.794-1.109-5.511-0.753-1.748-1.774-3.242-3.030-4.502l0 0c-1.259-1.256-2.753-2.279-4.409-2.997l-0.092-0.036c-1.594-0.701-3.452-1.11-5.406-1.11-0.029 0-0.059 0-0.088 0l0.005-0c-1.956 0-3.794 0.37-5.511 1.109-1.748 0.754-3.242 1.776-4.502 3.033l0-0c-1.28 1.28-2.293 2.78-3.033 4.498-0.736 1.721-1.106 3.556-1.106 5.515 0 1.938 0.37 3.769 1.109 5.486s1.749 3.218 3.033 4.501c1.28 1.28 2.78 2.29 4.498 3.029 1.721 0.74 3.556 1.109 5.515 1.109 1.586 0 3.093-0.249 4.533-0.747 1.436-0.501 2.748-1.202 3.936-2.098l5.97 5.97c0.176 0.198 0.397 0.352 0.646 0.448l0.011 0.004c0.249 0.096 0.498 0.142 0.747 0.142zM14.151 24.284c-1.415 0-2.738-0.27-3.968-0.8-1.249-0.54-2.317-1.272-3.218-2.169l0 0c-0.898-0.902-1.629-1.97-2.143-3.155l-0.026-0.066c-0.506-1.144-0.8-2.479-0.8-3.882 0-0.020 0-0.040 0-0.061v0.003c0-1.415 0.267-2.738 0.796-3.968 0.533-1.227 1.255-2.3 2.172-3.218s1.991-1.639 3.218-2.169c1.23-0.533 2.553-0.8 3.968-0.8 1.397 0 2.709 0.267 3.94 0.796 1.23 0.533 2.3 1.255 3.218 2.172s1.643 1.991 2.172 3.218c0.533 1.23 0.796 2.553 0.796 3.968 0 1.397-0.267 2.709-0.796 3.94-0.533 1.23-1.255 2.3-2.169 3.218-0.921 0.917-1.991 1.643-3.221 2.172-1.23 0.533-2.542 0.796-3.94 0.796z"></path>
</symbol>
<symbol id="icon-like" viewBox="0 0 37 32">
<path d="M26.092 0c-5.482 0-7.951 4.093-7.951 4.093s-2.471-4.093-7.951-4.093c-5.635 0-10.189 4.94-10.189 11.038s4.709 9.573 9.418 13.741c7.101 6.329 7.564 6.87 8.723 6.87 1.157 0 1.62-0.541 8.723-6.872 4.787-4.244 9.418-7.719 9.418-13.74 0-6.097-4.556-11.038-10.189-11.038zM25.319 23.003c-4.168 3.705-6.407 5.79-7.178 6.253-0.773-0.541-3.552-3.011-7.18-6.253-4.244-3.781-8.645-6.947-8.645-12.042 0-4.785 3.55-8.723 7.874-8.723 3.166 0 4.864 1.544 6.097 3.242 2.779 3.938 0.926 3.938 3.705 0 1.236-1.698 2.936-3.242 6.1-3.242 4.322 0 7.874 3.938 7.874 8.724 0 5.171-4.401 8.337-8.647 12.042z"></path>
</symbol>
<symbol id="icon-kompass" viewBox="0 0 32 32">
<path d="M15.665 0c8.669 0 15.668 7.001 15.668 15.665 0 8.669-7.001 15.668-15.667 15.668-0.006 0-0.012 0-0.019 0-8.642 0-15.648-7.006-15.648-15.648 0-0.007 0-0.014 0-0.021v0.001c0-8.666 7.001-15.665 15.665-15.665zM15.665 29.334c7.535 0 13.668-6.134 13.668-13.667 0-7.535-6.134-13.667-13.667-13.667-7.535 0-13.667 6.134-13.667 13.667s6.134 13.667 13.667 13.667zM12.735 13.533c0.201-0.333 0.467-0.599 0.8-0.8l9.866-5.399c0.201-0.067 0.401-0.067 0.534 0.067 0.134 0.132 0.201 0.333 0.067 0.532l-5.401 9.868c-0.199 0.331-0.469 0.601-0.79 0.794l-0.010 0.006-9.866 5.399c-0.199 0.067-0.4 0.067-0.532-0.067-0.134-0.132-0.201-0.333-0.067-0.534l5.399-9.866zM16.868 16.867l2.865-5.2-5.199 2.865 2.333 2.335z"></path>
</symbol>
<symbol id="icon-send" viewBox="0 0 37 32">
<path d="M35.498 0h-34.737c-0.696 0-1.004 0.849-0.542 1.314l12.35 12.194 4.244 17.6c0.157 0.696 1.083 0.775 1.391 0.232l17.989-30.181c0.305-0.542-0.081-1.159-0.697-1.159zM4.542 2.316h25.861l-16.057 8.876c-0.104 0.051-0.226 0.081-0.355 0.081-0.222 0-0.424-0.089-0.572-0.232l0 0-8.876-8.724zM18.206 26.863l-3.087-12.813c-0.012-0.051-0.019-0.11-0.019-0.17 0-0.292 0.162-0.547 0.401-0.679l0.004-0.002 16.133-8.953-13.432 22.617z"></path>
</symbol>
<symbol id="icon-home" viewBox="0 0 32 32">
<path d="M30.855 32h-10.657c-0.557 0-1.044-0.465-1.044-0.999v-8.191c0-1.731-1.393-3.065-3.204-3.065s-3.203 1.332-3.203 3.065v8.191c0 0.534-0.487 0.999-1.046 0.999h-10.656c-0.557 0-1.044-0.465-1.044-0.999v-15.651c0-0.266 0.14-0.532 0.279-0.732l14.975-14.319c0.188-0.185 0.446-0.3 0.731-0.3s0.543 0.114 0.731 0.3l-0-0 14.975 14.319c0.279 0.266 0.419 0.733 0.209 1.065 0 0.067-0.070 0.067-0.070 0.134v15.185c0.070 0.532-0.417 0.998-0.975 0.998zM21.244 30.001h8.567v-14.385l-13.792-13.185-13.929 13.319v14.252h8.567v-7.191c0-2.865 2.298-5.062 5.292-5.062 2.996 0 5.295 2.196 5.295 5.062v7.191z"></path>
</symbol>
</defs>
</svg>
